<svg width="100" height="18" viewBox="0 0 100 18" fill="none" xmlns="http://www.w3.org/2000/svg">
<path d="M2.21105 10.8314L1.48467 10.105C-0.494891 8.12542 -0.494891 4.9159 1.48467 2.93633C3.46424 0.956769 6.67376 0.956769 8.65332 2.93633L9.3797 3.66271L7.04312 7.76752L2.21105 10.8314Z" fill="#FF772D"/>
<path d="M17.2751 2.93633C15.2956 0.956769 12.086 0.956769 10.1065 2.93633L9.38007 3.66271L9.01367 6.9989L9.38007 8.61642L12.5833 5.41317C12.9824 5.01406 13.4485 4.95444 13.6908 4.95444C13.9331 4.95444 14.3991 5.01406 14.7983 5.41317C15.1974 5.81232 15.257 6.27838 15.257 6.52064C15.257 6.7629 15.1974 7.22896 14.7983 7.62811L9.38007 13.0463L9.01367 14.5852L9.38007 18L17.2751 10.105C19.2547 8.12542 19.2547 4.9159 17.2751 2.93633Z" fill="#282866"/>
<path d="M7.16465 10.8312L9.37959 8.61631V3.6626L2.21094 10.8312L9.37959 17.9999V13.0462L7.16465 10.8312Z" fill="#4A4080"/>
<path d="M28.5493 5.87736C28.5047 5.42827 28.3136 5.07938 27.9758 4.83071C27.6381 4.58204 27.1797 4.45771 26.6007 4.45771C26.2073 4.45771 25.8751 4.51338 25.6042 4.62472C25.3332 4.73236 25.1254 4.88267 24.9806 5.07567C24.8396 5.26867 24.7691 5.48765 24.7691 5.73261C24.7617 5.93674 24.8043 6.1149 24.8971 6.26707C24.9936 6.41924 25.1254 6.551 25.2924 6.66234C25.4594 6.76998 25.6524 6.86462 25.8714 6.94627C26.0904 7.02422 26.3242 7.09102 26.5729 7.1467L27.5972 7.39166C28.0946 7.503 28.5511 7.65146 28.9668 7.83704C29.3825 8.02261 29.7425 8.25087 30.0468 8.52181C30.3512 8.79275 30.5869 9.11194 30.7539 9.47938C30.9246 9.84682 31.0118 10.2681 31.0156 10.7431C31.0118 11.4409 30.8337 12.0459 30.4811 12.5581C30.1322 13.0666 29.6274 13.4618 28.9668 13.7439C28.3099 14.0223 27.5175 14.1615 26.5896 14.1615C25.6691 14.1615 24.8674 14.0204 24.1845 13.7383C23.5053 13.4563 22.9746 13.0387 22.5923 12.4857C22.2137 11.929 22.0151 11.2405 21.9966 10.4202H24.3293C24.3552 10.8025 24.4647 11.1217 24.6577 11.3778C24.8544 11.6302 25.1161 11.8213 25.4427 11.9512C25.773 12.0774 26.146 12.1405 26.5617 12.1405C26.97 12.1405 27.3245 12.0811 27.6251 11.9624C27.9294 11.8436 28.1651 11.6785 28.3321 11.4669C28.4991 11.2553 28.5827 11.0122 28.5827 10.7376C28.5827 10.4815 28.5066 10.2662 28.3544 10.0918C28.2059 9.91734 27.987 9.76888 27.6975 9.6464C27.4117 9.52392 27.0609 9.41257 26.6452 9.31236L25.4037 9.0006C24.4425 8.76677 23.6835 8.40119 23.1267 7.90384C22.57 7.4065 22.2935 6.73657 22.2972 5.89406C22.2935 5.20372 22.4772 4.6006 22.8484 4.0847C23.2232 3.5688 23.7373 3.1661 24.3905 2.8766C25.0437 2.58711 25.786 2.44236 26.6174 2.44236C27.4636 2.44236 28.2022 2.58711 28.8332 2.8766C29.4679 3.1661 29.9615 3.5688 30.3141 4.0847C30.6667 4.6006 30.8485 5.19815 30.8597 5.87736H28.5493ZM32.637 2.59824H35.6099L38.7499 10.2588H38.8835L42.0234 2.59824H44.9963V14H42.6581V6.57883H42.5635L39.6128 13.9443H38.0206L35.0699 6.551H34.9753V14H32.637V2.59824ZM46.9825 2.59824H49.9554L53.0953 10.2588H53.2289L56.3689 2.59824H59.3418V14H57.0035V6.57883H56.9089L53.9583 13.9443H52.366L49.4154 6.551H49.3207V14H46.9825V2.59824Z" fill="#282866"/>
<path d="M67.5132 5.87736C67.4686 5.42827 67.2775 5.07938 66.9397 4.83071C66.602 4.58204 66.1436 4.45771 65.5646 4.45771C65.1712 4.45771 64.839 4.51338 64.5681 4.62472C64.2971 4.73236 64.0893 4.88267 63.9445 5.07567C63.8035 5.26867 63.733 5.48765 63.733 5.73261C63.7256 5.93674 63.7682 6.1149 63.861 6.26707C63.9575 6.41924 64.0893 6.551 64.2563 6.66234C64.4233 6.76998 64.6163 6.86462 64.8353 6.94627C65.0543 7.02422 65.2881 7.09102 65.5368 7.1467L66.5611 7.39166C67.0585 7.503 67.515 7.65146 67.9307 7.83704C68.3464 8.02261 68.7064 8.25087 69.0107 8.52181C69.3151 8.79275 69.5508 9.11194 69.7178 9.47938C69.8885 9.84682 69.9757 10.2681 69.9794 10.7431C69.9757 11.4409 69.7976 12.0459 69.445 12.5581C69.0961 13.0666 68.5913 13.4618 67.9307 13.7439C67.2738 14.0223 66.4814 14.1615 65.5535 14.1615C64.633 14.1615 63.8313 14.0204 63.1484 13.7383C62.4692 13.4563 61.9385 13.0387 61.5562 12.4857C61.1776 11.929 60.979 11.2405 60.9605 10.4202H63.2932C63.3191 10.8025 63.4286 11.1217 63.6216 11.3778C63.8183 11.6302 64.08 11.8213 64.4066 11.9512C64.7369 12.0774 65.1099 12.1405 65.5256 12.1405C65.9339 12.1405 66.2884 12.0811 66.589 11.9624C66.8933 11.8436 67.129 11.6785 67.296 11.4669C67.463 11.2553 67.5466 11.0122 67.5466 10.7376C67.5466 10.4815 67.4705 10.2662 67.3183 10.0918C67.1698 9.91734 66.9509 9.76888 66.6614 9.6464C66.3756 9.52392 66.0248 9.41257 65.6091 9.31236L64.3676 9.0006C63.4064 8.76677 62.6474 8.40119 62.0906 7.90384C61.5339 7.4065 61.2574 6.73657 61.2611 5.89406C61.2574 5.20372 61.4411 4.6006 61.8123 4.0847C62.1871 3.5688 62.7012 3.1661 63.3544 2.8766C64.0076 2.58711 64.7499 2.44236 65.5813 2.44236C66.4275 2.44236 67.1661 2.58711 67.7971 2.8766C68.4317 3.1661 68.9254 3.5688 69.278 4.0847C69.6306 4.6006 69.8124 5.19815 69.8236 5.87736H67.5132ZM71.6009 2.59824H74.5738L77.7138 10.2588H77.8474L80.9873 2.59824H83.9602V14H81.622V6.57883H81.5274L78.5767 13.9443H76.9845L74.0338 6.551H73.9392V14H71.6009V2.59824ZM85.9464 2.59824H88.9193L92.0592 10.2588H92.1928L95.3328 2.59824H98.3057V14H95.9674V6.57883H95.8728L92.9222 13.9443H91.3299L88.3793 6.551H88.2846V14H85.9464V2.59824Z" fill="#FF772D"/>
</svg>
